PathFileType	4	(X/Y/Z)	C:\Users\Basilio\Documents\Thesis Gigler\squatting_fais\c3dfiles\047\SLS_pre_back4\markers_experimental.trc
DataRate	CameraRate	NumFrames	NumMarkers	Units	OrigDataRate	OrigDataStartFrame	OrigNumFrames
200.000000	200.000000	4	61	mm	200.000000	0	1267
Frame#	Time	FHD			LBHD			RBHD			C7			T10			CLAV			LSHO			LUUPA			LMUPA			LDUPA			LLEP			LMEP			LRAD			LUL			LRFIN			RSHO			RUPA1			RMUPA			RDUPA			RLEP			RMEP			RUL			RUFIN			LASI			RASI			USACR			LSACR			RSACR			LTHI1			LTHI2			LTHI3			LTHI4			LLFC			LMFC			LTIB1			LTIB2			LTIB3			LTIB4			LLMAL			LMMAL			LMT1			LMT2			LMT5			RTHI			RTHI2			RTHI3			RTHI4			RLFC			RMFC			RTIB1			RTIB2			RTIB3			RTIB4			RLMAL			RMMAL			RHEE			RMT1			RMT2			RMT5			RRAD			*60			
		X1	Y1	Z1	X2	Y2	Z2	X3	Y3	Z3	X4	Y4	Z4	X5	Y5	Z5	X6	Y6	Z6	X7	Y7	Z7	X8	Y8	Z8	X9	Y9	Z9	X10	Y10	Z10	X11	Y11	Z11	X12	Y12	Z12	X13	Y13	Z13	X14	Y14	Z14	X15	Y15	Z15	X16	Y16	Z16	X17	Y17	Z17	X18	Y18	Z18	X19	Y19	Z19	X20	Y20	Z20	X21	Y21	Z21	X22	Y22	Z22	X23	Y23	Z23	X24	Y24	Z24	X25	Y25	Z25	X26	Y26	Z26	X27	Y27	Z27	X28	Y28	Z28	X29	Y29	Z29	X30	Y30	Z30	X31	Y31	Z31	X32	Y32	Z32	X33	Y33	Z33	X34	Y34	Z34	X35	Y35	Z35	X36	Y36	Z36	X37	Y37	Z37	X38	Y38	Z38	X39	Y39	Z39	X40	Y40	Z40	X41	Y41	Z41	X42	Y42	Z42	X43	Y43	Z43	X44	Y44	Z44	X45	Y45	Z45	X46	Y46	Z46	X47	Y47	Z47	X48	Y48	Z48	X49	Y49	Z49	X50	Y50	Z50	X51	Y51	Z51	X52	Y52	Z52	X53	Y53	Z53	X54	Y54	Z54	X55	Y55	Z55	X56	Y56	Z56	X57	Y57	Z57	X58	Y58	Z58	X59	Y59	Z59	X60	Y60	Z60	X61	Y61	Z61	

1	0	-182.2378082275391	1747.0029296875	-1100.301513671875	-357.0769348144532	1697.605346679688	-1127.985229492188	-335.0242309570313	1699.714111328125	-980.734313964844	-368.2524414062501	1517.198852539063	-1062.1455078125	-377.2576293945313	1207.655883789063	-1037.046875	-217.9099273681641	1463.61181640625	-1086.295532226563	-291.9563598632813	1473.527587890625	-1240.500610351563	-225.4477844238282	1323.11474609375	-1336.702880859375	-183.2606964111328	1348.69140625	-1334.573120117188	-163.0913696289063	1293.705444335938	-1349.545288085938	-90.29417419433595	1281.208618164063	-1354.509765625	-104.6700592041016	1228.434814453125	-1280.173950195313	50.97992324829103	1400.940673828125	-1174.055908203125	96.74726104736331	1338.734375	-1173.4853515625	140.603500366211	1421.877563476563	-1166.09130859375	-255.1916198730469	1495.207885742188	-923.6682128906252	-158.7265777587891	1348.790405273438	-826.7553710937502	-119.4039459228516	1369.984985351563	-846.150329589844	-97.18253326416018	1316.152954101563	-831.6829223632815	-24.48382568359376	1302.2666015625	-849.066589355469	-54.4081268310547	1237.619506835938	-904.6851196289065	136.1624145507813	1347.6923828125	-1052.8603515625	111.0575714111328	1431.699462890625	-1080.768920898438	-204.7614898681641	983.941101074219	-1128.832885742188	-197.4161682128907	1004.821838378906	-897.0009765625002	-381.9597778320313	1075.577880859375	-1018.077331542969	-388.1730346679689	1042.299194335938	-1043.250244140625	-384.3334960937501	1047.117553710938	-985.419616699219	-292.8789672851563	828.5606079101565	-1186.084350585938	-261.0151672363282	750.2434692382814	-1182.119750976563	-212.3973999023438	752.7900390625001	-1169.540893554688	-292.0088806152344	698.0411376953126	-1173.352661132813	-326.9301147460938	528.2372436523439	-1129.20068359375	-296.2929687500001	522.0602416992189	-1007.890930175781	-296.6681213378907	346.7736511230469	-1029.88720703125	-309.1000061035157	297.9849243164063	-1101.966430664063	-290.6377258300782	296.9285278320313	-1057.497680664063	-302.9119873046876	221.0055694580079	-1023.866394042969	-354.4911804199219	123.0182723999024	-1061.662475585938	-329.3172607421876	140.8472137451172	-977.7029418945315	-210.0274047851563	64.58803558349611	-993.5461425781252	-210.8116760253907	60.51998519897462	-1038.34228515625	-259.5628662109376	47.64958953857423	-1081.546264648438	-251.6674194335938	826.081970214844	-792.2109375000002	-202.5240631103516	780.8083496093752	-785.1528320312502	-173.2428741455078	786.2036132812502	-796.9670410156252	-212.5343017578126	697.7078857421876	-775.7709960937502	-187.785873413086	567.1903076171876	-784.8260498046877	-180.3031921386719	533.8731079101564	-911.0617675781252	-269.7520141601563	474.3664855957032	-784.3045043945315	-368.9541931152344	511.2381286621095	-753.7087402343751	-352.0525512695313	467.6618652343751	-757.7612915039064	-393.6028747558595	433.8910217285157	-785.6567382812502	-558.2639770507814	445.9461059570314	-755.8020019531251	-532.6442260742189	405.818572998047	-835.9528808593752	-586.5383300781251	487.0589294433595	-821.5577392578127	-594.2969360351564	279.7603454589844	-806.0313110351565	-596.4481201171876	280.8767395019532	-760.5771484375001	-633.8858032226564	334.6396789550782	-720.1633300781251	nan	nan	nan	nan	nan	nan	
2	0.005	-182.2617645263672	1747.008056640625	-1100.458251953125	-357.0450134277344	1697.58984375	-1128.100341796875	-334.9412536621094	1699.795288085938	-980.8870239257815	-368.2550048828126	1517.242309570313	-1062.214721679688	-377.2582092285157	1207.705322265625	-1036.970336914063	-217.8686828613282	1463.596069335938	-1086.427490234375	-292.0539550781251	1473.51171875	-1240.597900390625	-225.5987701416016	1323.080444335938	-1336.819213867188	-183.4519805908203	1348.654296875	-1334.661743164063	-163.1749114990235	1293.682006835938	-1349.660522460938	-90.42967224121095	1281.188598632813	-1354.61279296875	-104.7397155761719	1228.398315429688	-1280.257934570313	50.88423538208009	1400.882202148438	-1174.239990234375	96.25305175781253	1338.942260742188	-1173.645385742188	140.5924682617188	1421.799438476563	-1166.393310546875	-255.1545562744141	1495.233154296875	-923.7808837890627	-158.6776580810547	1348.817626953125	-826.8840942382815	-119.2981338500977	1370.004272460938	-846.2586669921877	-97.13650512695315	1316.160888671875	-831.7642822265627	-24.4299602508545	1302.33349609375	-849.2402954101565	-54.29908752441408	1237.615600585938	-904.8737792968752	136.1617431640625	1347.670288085938	-1053.100830078125	111.0771179199219	1431.678588867188	-1080.993774414063	-204.8614807128907	983.9732666015627	-1128.91064453125	-197.3481140136719	1004.874633789063	-897.0627441406252	-381.8980407714844	1075.60986328125	-1018.002319335938	-388.0558471679689	1042.289428710938	-1043.211547851563	-384.2812805175782	1047.12890625	-985.337829589844	-293.0089416503907	828.5983886718752	-1186.109375	-261.0769653320313	750.2775268554689	-1182.169921875	-212.4422302246094	752.7811889648439	-1169.660888671875	-292.0472412109376	698.0671386718751	-1173.399536132813	-327.0474853515626	528.2414550781251	-1129.176025390625	-296.1152038574219	522.1740112304689	-1008.0263671875	-296.6625976562501	346.7537231445313	-1029.975341796875	-309.2423706054688	298.0345458984376	-1102.078735351563	-290.3033752441407	296.4813537597657	-1057.718139648438	-302.9064941406251	221.0694580078126	-1024.024291992188	-354.4233093261719	123.0211181640625	-1061.73876953125	-329.2956542968751	140.9043731689453	-977.8208007812502	-210.0246276855469	64.58782196044923	-993.6250610351565	-210.8760223388672	60.43151855468751	-1038.371337890625	-259.5848693847657	47.59568023681641	-1081.615844726563	-251.5624084472657	826.1257934570315	-792.197937011719	-202.2585754394532	781.0815429687502	-785.5627441406252	-172.8786163330078	786.304138183594	-797.2427978515627	-212.2532958984376	697.7554931640626	-775.7869262695315	-187.7218780517578	567.2282714843751	-784.8743896484377	-180.3914337158203	533.8488159179689	-911.0628051757815	-269.7158203125001	474.434295654297	-784.2859497070315	-368.7640075683594	511.3248901367189	-753.6086425781251	-351.9748840332032	467.7388916015626	-757.6602783203126	-393.5539550781251	433.9378051757814	-785.4583129882815	-558.0029296875001	446.1912536621095	-756.0764160156251	-532.6555786132814	405.890350341797	-835.579040527344	-586.4723510742189	487.1232910156251	-821.1900634765627	-594.1832275390626	279.8241271972657	-805.7124023437502	-596.3265380859376	280.9732666015626	-760.1439208984376	-633.7710571289064	334.7358093261719	-719.7648925781251	nan	nan	nan	nan	nan	nan	
3	0.01	-182.3229675292969	1747.014038085938	-1100.602783203125	-356.6080932617188	1697.067260742188	-1128.33349609375	-334.8782348632813	1699.844116210938	-980.9738769531252	-368.2552185058594	1517.242553710938	-1062.214721679688	-377.2781372070313	1207.732421875	-1036.966918945313	-217.9351348876954	1463.5537109375	-1086.5048828125	-292.1602172851563	1473.472412109375	-1240.637573242188	-225.7881469726563	1323.053833007813	-1336.838500976563	-183.5207977294922	1348.630981445313	-1334.760620117188	-163.3360748291016	1293.669677734375	-1349.812866210938	-90.68493652343751	1281.102294921875	-1354.794921875	-104.8610992431641	1228.326904296875	-1280.4287109375	50.78646087646486	1400.820434570313	-1174.388916015625	96.18809509277347	1338.910522460938	-1173.83642578125	140.6443786621094	1421.744750976563	-1166.692993164063	-255.0858306884766	1495.243041992188	-923.8931274414065	-158.5601043701172	1348.877075195313	-827.0223388671877	-119.2153549194336	1370.004028320313	-846.3729248046877	-97.12524414062503	1316.2216796875	-831.890808105469	-24.30335235595704	1302.39404296875	-849.3455810546877	-54.06390762329103	1237.615356445313	-905.219665527344	136.1701965332032	1347.602416992188	-1053.349853515625	111.1764068603516	1431.635009765625	-1081.183959960938	-204.9321746826172	984.002624511719	-1128.9912109375	-197.2937774658204	1004.940063476563	-897.0488281250002	-381.9013061523438	1075.639282226563	-1017.945739746094	-388.1145935058595	1042.303588867188	-1043.139404296875	-384.1572265625001	1047.143676757813	-985.2971191406252	-293.0137939453126	828.6570434570315	-1186.1298828125	-261.1459655761719	750.3387451171876	-1182.1748046875	-212.5373840332032	752.8179321289064	-1169.735961914063	-292.1269226074219	698.0894775390626	-1173.399291992188	-327.0988769531251	528.2985839843751	-1129.218505859375	-296.1818847656251	522.2214965820314	-1007.986511230469	-296.6508789062501	346.7725219726563	-1030.055541992188	-309.3023681640626	298.0596923828126	-1102.194458007813	-290.3140869140626	296.5279846191407	-1057.80224609375	-302.8831176757813	221.106430053711	-1024.1259765625	-354.4605712890626	123.0414505004883	-1061.762451171875	-329.2495422363282	140.9505157470703	-977.9072265625002	-210.0292053222657	64.62268829345705	-993.639587402344	-210.8345184326172	60.48554611206056	-1038.429443359375	-259.5299682617188	47.53306579589844	-1081.606323242188	-251.378402709961	826.177673339844	-792.1982421875002	-202.102279663086	780.9000244140627	-785.2602539062502	-172.8351745605469	786.3523559570315	-797.250915527344	-212.1349334716797	697.7795410156251	-775.8247070312502	-187.6012725830078	567.2375488281251	-784.914245605469	-180.4928436279297	533.8730468750001	-911.1033935546877	-269.6703796386719	474.4460449218751	-784.1827392578127	-368.6782836914063	511.3923950195314	-753.5322875976564	-351.9104614257813	467.8073120117189	-757.4965209960939	-393.4643554687501	433.9761047363282	-785.384216308594	-557.9155273437501	446.2894897460939	-755.7440185546876	-532.6779785156251	405.8797607421876	-835.2886962890627	-586.4892578125001	487.2381896972657	-820.8850708007815	-594.0700683593751	279.9212646484376	-805.326843261719	-596.3520507812501	281.0381164550782	-759.6438598632814	-633.6603393554689	334.8251037597657	-719.3840332031251	nan	nan	nan	nan	nan	nan	
4	0.015	-183.1071014404297	1746.483154296875	-1099.308959960938	-357.1471252441407	1697.597900390625	-1128.342041015625	-334.6770324707032	1699.9580078125	-981.1628417968752	-368.2273254394532	1517.303466796875	-1062.280883789063	-377.2664184570313	1207.753295898438	-1036.925415039063	-217.8961639404297	1463.61474609375	-1086.604858398438	-292.2644042968751	1473.456787109375	-1240.718872070313	-225.8396148681641	1323.002563476563	-1336.931640625	-183.70751953125	1348.612426757813	-1334.828369140625	-163.4829864501953	1293.588012695313	-1349.879028320313	-90.91564178466798	1281.061889648438	-1354.951416015625	-104.9781265258789	1228.308349609375	-1280.535766601563	50.76632308959962	1400.792114257813	-1174.669555664063	96.05361175537112	1338.819458007813	-1174.036987304688	140.5537414550782	1421.717651367188	-1166.953369140625	-255.0233306884766	1495.266357421875	-924.0118408203127	-158.3366088867188	1348.840942382813	-827.1988525390627	-119.1304092407227	1370.044555664063	-846.4792480468752	-96.95166015625003	1316.250122070313	-832.0693359375002	-24.19557189941407	1302.368041992188	-849.5559692382815	-54.07187271118165	1237.632568359375	-905.2883300781252	136.2084197998047	1347.590087890625	-1053.579345703125	111.2009201049805	1431.661010742188	-1081.44384765625	-205.0032196044922	983.967224121094	-1129.006103515625	-197.2470092773438	1004.9755859375	-897.0911254882815	-381.8636474609376	1075.640258789063	-1017.88037109375	-388.1061401367189	1042.326782226563	-1043.134521484375	-384.2086791992189	1047.181762695313	-985.2198486328127	-293.0975341796876	828.6585083007815	-1186.127319335938	-261.1606750488282	750.3482666015626	-1182.246459960938	-212.5653991699219	752.8475341796876	-1169.775390625	-292.2417297363282	698.1408081054689	-1173.401000976563	-327.1262512207032	528.3142089843751	-1129.225708007813	-296.1026611328126	522.1958007812501	-1008.059692382813	-296.6347351074219	346.7943115234376	-1030.093994140625	-309.3872070312501	298.1134338378907	-1102.225463867188	-290.4143676757813	296.5694274902344	-1057.8544921875	-302.8205871582032	221.1601104736329	-1024.307250976563	-354.4571838378907	123.0044174194336	-1061.83251953125	-329.2024841308594	141.005844116211	-977.9923095703127	-209.9808807373047	64.6531219482422	-993.6691894531252	-210.8528289794922	60.46054840087892	-1038.492553710938	-259.5870666503907	47.48891067504884	-1081.6171875	-251.1243896484376	826.2302246093752	-792.2604980468752	-202.0023651123047	780.9375610351565	-785.275817871094	-172.6656188964844	786.3966064453127	-797.3170166015627	-211.9252471923829	697.8203735351564	-775.8997192382815	-187.5550079345703	567.2629394531251	-784.9332275390627	-180.5478515625	533.8748779296876	-911.099060058594	-269.6412963867188	474.476043701172	-784.1421508789065	-368.5411987304688	511.4851379394532	-753.3731689453126	-351.7619934082032	467.898162841797	-757.4487915039064	-393.3887329101564	434.0257263183595	-785.218200683594	-557.8310546875001	446.3865661621095	-755.4401245117189	-532.7139892578126	405.9944763183595	-834.9761352539065	-586.4404907226564	487.2910461425782	-820.6049804687502	-593.9290161132814	279.9453430175782	-804.9531860351565	-596.2329711914064	281.1350708007813	-759.2777709960939	-633.5634765625001	334.9246826171876	-718.9589843750001	nan	nan	nan	nan	nan	nan	
